<svg width="135" height="135" viewBox="0 0 135 135" fill="none" xmlns="http://www.w3.org/2000/svg">
<path d="M109.369 119.025C97.8268 128.435 83.0921 134.078 67.0391 134.078C50.986 134.078 36.2513 128.435 24.709 119.025H109.369ZM15.0527 109.368C5.64327 97.8259 0 83.0918 0 67.0391C0 50.986 5.64298 36.2513 15.0527 24.709V109.368ZM119.025 24.709C128.435 36.2513 134.078 50.986 134.078 67.0391C134.078 83.0918 128.435 97.8259 119.025 109.368V24.709ZM67.0391 0C83.0921 0 97.8268 5.64298 109.369 15.0527H24.709C36.2513 5.64298 50.986 0 67.0391 0Z" fill="black"/>
</svg>
